<svg width="24" height="24" viewBox="0 0 24 24" fill="none" xmlns="http://www.w3.org/2000/svg">
<path id="Vector" d="M20.8629 19.2422C20.7662 19.2158 20.649 19.2305 20.5143 19.2803C18.7096 20.1064 16.9547 20.6953 15.2496 21.0439C11.567 21.7939 7.97815 21.4014 4.48596 19.8691C3.51624 19.4414 2.16858 18.7207 0.442996 17.7012C0.398533 17.6661 0.34429 17.6456 0.287722 17.6426C0.229129 17.6396 0.179324 17.6455 0.132449 17.6689C0.0855742 17.6924 0.0504178 17.7217 0.0240506 17.7598C-0.00231657 17.7979 -0.00817576 17.8506 0.0123321 17.918C0.0299102 17.9824 0.0738554 18.0557 0.147098 18.1348C0.451785 18.4922 0.829715 18.873 1.27796 19.2773C1.7262 19.6816 2.32093 20.1387 3.06214 20.6484C3.80335 21.1582 4.57971 21.6123 5.38538 22.0078C6.19397 22.4033 7.13147 22.7373 8.20081 23.0068C9.27014 23.2764 10.3395 23.4111 11.4059 23.4111C12.4664 23.4111 13.4977 23.3027 14.4967 23.0918C15.4987 22.8779 16.3424 22.626 17.0309 22.333C17.7164 22.043 18.3492 21.7178 18.9293 21.3662C19.5094 21.0147 19.9371 20.7158 20.2155 20.4785C20.4938 20.2383 20.693 20.0508 20.8073 19.9102C20.942 19.7432 21.0094 19.5996 21.0094 19.4736C21.0123 19.3418 20.9596 19.2656 20.8629 19.2422ZM12.1442 6.91406C11.6989 6.95215 11.1627 7.03418 10.5328 7.15723C9.90296 7.27734 9.31995 7.42969 8.78089 7.6084C8.24182 7.78711 7.69104 8.03613 7.13147 8.35254C6.56897 8.66895 6.09143 9.03223 5.69593 9.43652C5.30042 9.84082 4.97815 10.3477 4.7262 10.96C4.47425 11.5693 4.34827 12.2402 4.34827 12.9727C4.34827 13.7666 4.48596 14.4727 4.76721 15.0967C5.04554 15.7207 5.4176 16.21 5.88635 16.5732C6.35218 16.9365 6.88245 17.2207 7.46839 17.4287C8.05432 17.6367 8.67542 17.7305 9.31995 17.7041C9.96448 17.6777 10.5944 17.5781 11.2067 17.4023C11.816 17.2295 12.3903 16.9512 12.9235 16.5732C13.4567 16.1953 13.8932 15.7471 14.236 15.2344C14.3619 15.4277 14.4733 15.5713 14.5729 15.665L14.8278 15.9258C14.9977 16.0986 15.2584 16.3535 15.61 16.6904C15.9586 17.0273 16.316 17.3555 16.6735 17.6777L19.7321 14.751L19.5563 14.6074C19.4303 14.5107 19.2809 14.373 19.111 14.1885C18.941 14.0068 18.7711 13.8047 18.6071 13.5879C18.4401 13.3711 18.2965 13.1162 18.1764 12.8291C18.0563 12.542 17.9948 12.2637 17.9948 11.9941V4.29492C17.9948 3.99902 17.9391 3.67969 17.8278 3.33398C17.7135 2.99121 17.5143 2.61621 17.2213 2.21191C16.9283 1.80762 16.5651 1.44434 16.1315 1.12793C15.6949 0.811524 15.1149 0.541992 14.3854 0.325195C13.6588 0.108398 12.8444 0 11.9479 0C11.0309 0 10.1783 0.108398 9.38147 0.319336C8.58753 0.533203 7.90784 0.817383 7.33948 1.1748C6.77405 1.53223 6.28772 1.94531 5.88343 2.41699C5.47913 2.88867 5.17737 3.38086 4.98108 3.89355C4.78479 4.40625 4.68518 4.92481 4.68518 5.44922L8.64612 5.79785C8.80725 5.31738 9.02405 4.90137 9.29065 4.54395C9.56018 4.18652 9.81507 3.92871 10.0465 3.76758C10.2809 3.60645 10.5328 3.47754 10.7994 3.38086C11.069 3.28418 11.2506 3.23438 11.3444 3.22266C11.4381 3.21387 11.5114 3.21094 11.567 3.21094C12.3492 3.21094 12.8912 3.44238 13.1959 3.90234C13.3864 4.18066 13.4801 4.60254 13.4801 5.1709V6.8291C13.0348 6.84668 12.5895 6.87598 12.1442 6.91406ZM13.483 11.3643C13.483 11.8506 13.4186 12.293 13.2926 12.6826C13.0231 13.5352 12.5104 14.0713 11.7574 14.2881C11.1012 14.4814 10.4772 14.3848 9.88538 14.001C9.2555 13.5908 8.94202 13.0107 8.94202 12.2637C8.94202 11.6807 9.0885 11.1826 9.38147 10.7666C9.67444 10.3535 10.0641 10.043 10.5533 9.83789C11.0426 9.63281 11.5201 9.48633 11.9889 9.40137C12.4547 9.31348 12.9557 9.26074 13.483 9.24316V11.3643ZM23.3033 17.7773C23.1774 17.6191 22.8375 17.5166 22.2809 17.4639C21.7242 17.4111 21.2408 17.4141 20.8248 17.4756C20.3766 17.5283 19.9137 17.6572 19.4391 17.8682C18.9616 18.0762 18.7535 18.252 18.8063 18.3896L18.8268 18.4277L18.8532 18.4482L18.8942 18.4541H19.0289C19.0524 18.4541 19.0817 18.4512 19.1227 18.4482C19.1637 18.4453 19.2018 18.4395 19.2369 18.4365C19.2721 18.4336 19.3219 18.4277 19.3864 18.4248C19.4479 18.4219 19.5065 18.4131 19.5621 18.4043C19.5709 18.4043 19.6705 18.3955 19.8639 18.3779C20.0573 18.3604 20.1979 18.3486 20.2828 18.3398C20.3678 18.3311 20.5114 18.3223 20.7076 18.3135C20.9039 18.3047 21.0621 18.3047 21.1793 18.3135C21.2965 18.3223 21.4283 18.334 21.5778 18.3457C21.7272 18.3574 21.8473 18.3838 21.941 18.4248C22.0348 18.4629 22.1051 18.5127 22.1491 18.5742C22.3014 18.7676 22.2721 19.1953 22.0612 19.8604C21.8502 20.5254 21.651 21.0557 21.4635 21.4482C21.3815 21.6152 21.3815 21.7178 21.4635 21.7617C21.5455 21.8057 21.6598 21.7647 21.8121 21.6445C22.2692 21.2871 22.65 20.748 22.9576 20.0244C23.1364 19.5967 23.2653 19.1514 23.3414 18.6855C23.4117 18.2197 23.4 17.918 23.3033 17.7773Z" fill="black"/>
</svg>
