<svg width="21" height="21" viewBox="0 0 21 21" fill="none" xmlns="http://www.w3.org/2000/svg">
<path d="M18.3752 18.3752L14.5751 14.5751M14.5751 14.5751C15.2251 13.925 15.7407 13.1533 16.0925 12.304C16.4443 11.4547 16.6254 10.5445 16.6254 9.62518C16.6254 8.7059 16.4443 7.79563 16.0925 6.94633C15.7407 6.09703 15.2251 5.32533 14.5751 4.67531C13.925 4.02528 13.1533 3.50965 12.304 3.15786C11.4547 2.80607 10.5445 2.625 9.62518 2.625C8.7059 2.625 7.79563 2.80607 6.94633 3.15786C6.09703 3.50965 5.32533 4.02528 4.67531 4.67531C3.36252 5.98809 2.625 7.76862 2.625 9.62518C2.625 11.4817 3.36252 13.2623 4.67531 14.5751C5.98809 15.8878 7.76862 16.6254 9.62518 16.6254C11.4817 16.6254 13.2623 15.8878 14.5751 14.5751Z" stroke="black" stroke-width="1.5" stroke-linecap="round" stroke-linejoin="round"/>
</svg>
