<svg width="31" height="31" viewBox="0 0 31 31" fill="none" xmlns="http://www.w3.org/2000/svg">
<path d="M27.0727 14.9612C27.1076 15.2964 27.125 15.647 27.125 16.0171C27.125 18.5301 26.2492 20.2196 25.4006 21.2774C25.058 21.707 24.6658 22.0946 24.2323 22.4322C24.0858 22.5451 23.9331 22.6499 23.7751 22.746L23.7576 22.7557C23.604 22.8389 23.4757 22.962 23.3864 23.1121C23.297 23.2621 23.2499 23.4336 23.25 23.6082V26.156C23.25 26.413 23.1479 26.6594 22.9663 26.8411C22.7846 27.0227 22.5382 27.1248 22.2812 27.1248H21.3125C21.3125 26.6109 21.1084 26.1181 20.745 25.7548C20.3817 25.3914 19.8889 25.1873 19.375 25.1873H15.5C14.9861 25.1873 14.4933 25.3914 14.13 25.7548C13.7666 26.1181 13.5625 26.6109 13.5625 27.1248H12.5938C12.3368 27.1248 12.0904 27.0227 11.9087 26.8411C11.7271 26.6594 11.625 26.413 11.625 26.156V24.9877C11.6252 24.7474 11.5361 24.5156 11.375 24.3373C11.2139 24.159 10.9922 24.0469 10.7531 24.0229C10.4461 23.9562 10.1454 23.8635 9.85413 23.7458C9.08156 23.4341 8.38074 22.968 7.79456 22.376C6.93625 21.5041 6.41119 20.3571 6.12831 19.5608C5.85125 18.7684 5.21575 18.0515 4.30706 17.7957C4.18271 17.7604 4.07328 17.6854 3.99532 17.5823C3.91736 17.4792 3.87512 17.3535 3.875 17.2242V15.6858C3.87489 15.5637 3.91454 15.4449 3.98795 15.3474C4.06137 15.2499 4.16454 15.1789 4.28188 15.1452C5.22156 14.8759 5.84931 14.1164 6.11475 13.3143C6.33175 12.6556 6.71538 11.8108 7.33925 11.1772C8.05397 10.4637 8.87974 9.87087 9.78438 9.42186C9.85994 9.38311 9.92 9.35599 9.95875 9.33855L9.9975 9.31917L10.0052 9.31724C10.1796 9.24249 10.3282 9.11818 10.4326 8.95974C10.5369 8.8013 10.5925 8.61571 10.5923 8.42599V5.18261C11.0232 5.55018 11.4762 5.89117 11.9486 6.20367C12.5627 6.60667 13.2796 6.98836 14.0294 7.1918C14.2503 6.5563 14.5526 5.9518 14.9284 5.3938H14.9168C14.3762 5.33761 13.7156 5.04505 13.0084 4.58199C12.3603 4.14628 11.751 3.65557 11.1871 3.1153C10.9764 2.91767 10.7131 2.78511 10.4289 2.73355C10.1446 2.68199 9.85151 2.71363 9.58481 2.82467C9.31125 2.93308 9.07645 3.12097 8.91068 3.36409C8.74492 3.60721 8.6558 3.89442 8.65481 4.18867V7.82536C7.66696 8.35783 6.76011 9.0285 5.96169 9.81711C5.0375 10.751 4.53569 11.9174 4.27606 12.7059C4.16756 13.0295 3.95056 13.2252 3.74906 13.2814C3.22716 13.4308 2.76808 13.746 2.44124 14.1795C2.11441 14.6129 1.93758 15.141 1.9375 15.6839V17.2242C1.9375 18.3576 2.69119 19.3516 3.78006 19.6596C3.90397 19.7028 4.01593 19.7746 4.10684 19.8692C4.19775 19.9638 4.26502 20.0785 4.30319 20.2041C4.62481 21.1186 5.26806 22.5736 6.41506 23.7361C7.32819 24.6591 8.45088 25.3478 9.6875 25.7434V26.156C9.6875 26.9268 9.99369 27.6661 10.5387 28.2111C11.0837 28.7561 11.823 29.0623 12.5938 29.0623H13.5625C14.0764 29.0623 14.5692 28.8582 14.9325 28.4948C15.2959 28.1315 15.5 27.6387 15.5 27.1248H19.375C19.375 27.6387 19.5791 28.1315 19.9425 28.4948C20.3058 28.8582 20.7986 29.0623 21.3125 29.0623H22.2812C23.052 29.0623 23.7913 28.7561 24.3363 28.2111C24.8813 27.6661 25.1875 26.9268 25.1875 26.156V24.1352C25.8333 23.6658 26.4133 23.1119 26.9119 22.4884C28.0008 21.1321 29.0625 19.0241 29.0625 16.0171C29.0625 14.7577 28.8842 13.6301 28.5394 12.6226C28.194 13.4834 27.6973 14.2755 27.0727 14.9612ZM26.7201 7.50761C27.2044 8.67641 27.2943 9.97128 26.9761 11.1958C26.6579 12.4203 25.949 13.5076 24.9569 14.2927C24.149 14.9302 23.0427 14.8817 22.0933 14.4865L17.4627 12.5703C16.5133 12.177 15.6957 11.4291 15.5756 10.4081C15.4147 9.01539 15.7624 7.61149 16.5547 6.4549C17.3469 5.29831 18.5304 4.46692 19.8871 4.11382C21.2438 3.76072 22.6825 3.9097 23.938 4.53332C25.1936 5.15695 26.1816 6.21322 26.7201 7.50761ZM23.7557 12.7718C24.286 12.3528 24.6975 11.8024 24.9495 11.1752C25.2014 10.5481 25.2851 9.86594 25.1921 9.1965C25.0991 8.52706 24.8327 7.89355 24.4193 7.35882C24.006 6.82409 23.46 6.40671 22.8356 6.14808C22.2111 5.88945 21.5299 5.79855 20.8595 5.8844C20.1891 5.97025 19.5528 6.22987 19.0137 6.6375C18.4746 7.04514 18.0514 7.58663 17.7862 8.20826C17.5209 8.8299 17.4227 9.51009 17.5014 10.1814C17.5053 10.2201 17.5208 10.2918 17.6293 10.4061C17.7935 10.5689 17.9893 10.6962 18.2048 10.78L22.8354 12.6982C23.0469 12.7926 23.2761 12.8408 23.5077 12.8396C23.6627 12.8357 23.7266 12.795 23.7557 12.7718ZM11.1406 14.531C11.526 14.531 11.8956 14.378 12.1681 14.1054C12.4407 13.8329 12.5938 13.4633 12.5938 13.0779C12.5938 12.6925 12.4407 12.3229 12.1681 12.0504C11.8956 11.7779 11.526 11.6248 11.1406 11.6248C10.7552 11.6248 10.3856 11.7779 10.1131 12.0504C9.8406 12.3229 9.6875 12.6925 9.6875 13.0779C9.6875 13.4633 9.8406 13.8329 10.1131 14.1054C10.3856 14.378 10.7552 14.531 11.1406 14.531Z" fill="black"/>
</svg>
