<svg width="24" height="24" viewBox="0 0 24 24" fill="none" xmlns="http://www.w3.org/2000/svg">
<g id="vaadin:google-plus">
<path id="Vector" d="M23.9999 5.84995H19.7999V1.94995H18.8999V5.84995H14.8499V7.04995H18.8999V10.95H19.7999V7.04995H23.9999V5.84995ZM10.3499 13.5C9.7499 13.2 8.6999 12.15 8.6999 11.55C8.6999 10.95 8.8499 10.5 9.8999 9.74995C10.9499 8.99995 11.6999 7.94995 11.6999 6.59995C11.6999 4.94995 10.9499 3.44995 9.7499 2.99995H11.6999L13.0499 1.94995H6.7499C3.8999 1.94995 1.3499 4.04995 1.3499 6.59995C1.3499 9.14995 3.2999 11.1 6.1499 11.1H6.7499C6.4499 11.4 6.4499 11.7 6.4499 12.15C6.4499 12.9 6.8999 13.35 7.3499 13.95H6.2999C2.8499 13.95 0.149902 16.2 0.149902 18.45C0.149902 20.7 3.1499 22.2 6.5999 22.2C10.4999 22.2 12.7499 19.95 12.7499 17.7C12.5999 15.75 11.9999 14.7 10.3499 13.5ZM7.0499 10.35C5.3999 10.35 3.8999 8.54995 3.5999 6.44995C3.2999 4.34995 4.3499 2.69995 5.9999 2.69995C7.6499 2.69995 9.1499 4.49995 9.4499 6.59995C9.7499 8.69995 8.6999 10.5 7.0499 10.35ZM6.4499 21.15C4.0499 21.15 2.2499 19.65 2.2499 17.85C2.2499 16.05 4.3499 14.55 6.7499 14.55C7.3499 14.55 7.7999 14.7 8.2499 14.85C9.5999 15.75 10.4999 16.2 10.7999 17.25C10.7999 17.4 10.9499 17.7 10.9499 17.85C10.9499 19.65 9.7499 21.15 6.4499 21.15Z" fill="white"/>
</g>
</svg>
