<svg width="84" height="84" viewBox="0 0 84 84" fill="none" xmlns="http://www.w3.org/2000/svg">
<g id="offers 1">
<path id="Vector" d="M60.7557 20.2522L62.0682 24.1897C62.4508 25.4361 63.2414 26.5178 64.3126 27.2609L67.6332 29.4922C68.7481 30.2404 69.5725 31.3483 69.969 32.631C70.3655 33.9137 70.3101 35.2935 69.812 36.5403L68.4995 39.7297C67.9282 41.1397 67.9282 42.7166 68.4995 44.1265L69.812 47.2372C70.3089 48.4588 70.3798 49.8123 70.0131 51.0792C69.6464 52.3461 68.8634 53.4524 67.7907 54.2197L64.8376 56.3328C63.7552 57.1022 62.968 58.2182 62.6064 59.4959L61.5432 63.2234C61.1731 64.5321 60.3588 65.671 59.2403 66.4445C58.1218 67.2181 56.7689 67.5782 55.4139 67.4628L52.2245 67.2003C50.7151 67.0749 49.2166 67.5461 48.0507 68.5128L44.9795 70.9934C43.9324 71.8473 42.6228 72.3137 41.2717 72.3137C39.9206 72.3137 38.611 71.8473 37.5639 70.9934L34.9389 68.8409C33.8866 67.9836 32.5686 67.5195 31.2114 67.5284H26.6045C25.2787 67.5318 23.9912 67.0841 22.9536 66.2588C21.916 65.4335 21.19 64.2797 20.8951 62.9872L20.0551 59.4172C19.7267 57.9767 18.8635 56.7147 17.6401 55.8865L14.8182 53.8128C13.7501 53.0863 12.9531 52.0262 12.5518 50.7984C12.1504 49.5705 12.1674 48.2444 12.6001 47.0272L13.9126 43.4309C14.3982 42.1227 14.3982 40.6836 13.9126 39.3753L12.7314 36.2253C12.259 34.9742 12.2293 33.599 12.6472 32.3286C13.0651 31.0582 13.9054 29.9693 15.0282 29.2428L18.1389 27.2347C19.3415 26.4569 20.2189 25.2667 20.6064 23.8878L21.5251 20.5803C21.8933 19.2633 22.7098 18.1165 23.8338 17.3375C24.9577 16.5587 26.3184 16.1969 27.6807 16.3147L30.6207 16.564C32.1334 16.6832 33.6336 16.2129 34.8076 15.2515L37.6032 12.9941C38.6534 12.1358 39.968 11.667 41.3242 11.667C42.6804 11.667 43.995 12.1358 45.0451 12.9941L47.4864 15.0415C48.6604 16.0124 50.1685 16.4837 51.6864 16.354L54.7707 16.1309C56.0863 16.0456 57.3923 16.4057 58.4782 17.1535C59.5639 17.9011 60.3662 18.9927 60.7557 20.2522Z" stroke="black" stroke-width="3" stroke-miterlimit="10"/>
<path id="Vector_2" d="M54.0223 29.1245L27.9561 55.2038M33.9806 36.5535C36.7133 36.5535 38.9287 34.3381 38.9287 31.6053C38.9287 28.8725 36.7133 26.6572 33.9806 26.6572C31.2478 26.6572 29.0324 28.8725 29.0324 31.6053C29.0324 34.3381 31.2478 36.5535 33.9806 36.5535ZM49.0743 57.3432C51.8071 57.3432 54.0224 55.1278 54.0224 52.3951C54.0224 49.6623 51.8071 47.447 49.0743 47.447C46.3416 47.447 44.1262 49.6623 44.1262 52.3951C44.1262 55.1278 46.3416 57.3432 49.0743 57.3432Z" stroke="black" stroke-width="3" stroke-linecap="round" stroke-linejoin="round"/>
</g>
</svg>
