<svg width="27" height="27" viewBox="0 0 27 27" fill="none" xmlns="http://www.w3.org/2000/svg">
<path d="M1.83398 9.125H25.1673L23.9496 22.514C23.8838 23.2386 23.5494 23.9125 23.0122 24.4033C22.475 24.8941 21.7737 25.1664 21.0461 25.1667H5.95523C5.22758 25.1664 4.52631 24.8941 3.98911 24.4033C3.4519 23.9125 3.11755 23.2386 3.05169 22.514L1.83398 9.125Z" stroke="black" stroke-width="2" stroke-linejoin="round"/>
<path d="M7.66797 12.0418V7.66683C7.66797 6.11973 8.28255 4.636 9.37651 3.54204C10.4705 2.44808 11.9542 1.8335 13.5013 1.8335C15.0484 1.8335 16.5321 2.44808 17.6261 3.54204C18.7201 4.636 19.3346 6.11973 19.3346 7.66683V12.0418" stroke="black" stroke-width="2" stroke-linecap="round"/>
</svg>
